<svg xmlns="http://www.w3.org/2000/svg" width="101" height="33" viewBox="0 0 101 33">
    <g fill="none" fill-rule="nonzero">
        <path fill="#FFF" d="M8.976 19.745L4.48 15.23l4.515-4.495.01-4.481-6.76 6.73L0 15.219l2.235 2.246 6.73 6.761zM38.225 10.762l4.453 4.55-4.55 4.457-.044 4.481 6.813-6.672 2.266-2.218-2.218-2.266-6.676-6.813z"/>
        <path fill="#E20074" d="M39.77 2.331s-5.327-1.83-7.964 2.98c-2.32 4.23-3.87 8.962-5.859 13.364-2.122 4.7-5.328 14.472-11.605 13.896-1.506-.134-6.398-2.273-6.858-3.909 1.308.458 2.671.74 4.053.837 5.883.254 8.204-7.495 10.286-11.918a315.539 315.539 0 0 0 4.385-9.737c1.22-2.756 2.197-6.017 5.208-7.114 2.828-1.025 5.904.148 8.355 1.601z"/>
        <path fill="#FFF" d="M17.465 18.685l.58-1.308 1.307.58-.58 1.307zM19.088 15.027l.58-1.307 1.306.58-.579 1.307zM20.707 11.365l.58-1.307 1.307.58-.58 1.307z"/>
        <g fill="#FFF">
            <path d="M53.654 21.232l1.85-2.057c.759.839 1.503 1.336 2.436 1.336 1.104 0 1.79-.666 1.794-2.21v-8.59h3.008v8.724c0 1.567-.462 2.742-1.261 3.56-.8.82-2.021 1.235-3.467 1.235a5.453 5.453 0 0 1-4.36-1.998zM68.305 9.633h2.703l5.7 13.436h-3.076l-1.214-2.993h-5.637l-1.222 2.99h-2.985l5.73-13.433zm3.075 7.835l-1.767-4.31-1.778 4.31h3.545zM77.229 20.844l7.34-8.512h-7.105v-2.57h10.878v2.23l-7.345 8.515h7.333v2.57H77.225zM89.38 20.86l7.365-8.528h-7.106v-2.57h10.878v2.23l-7.365 8.527h7.334v2.57H89.38z"/>
        </g>
    </g>
</svg>
